<svg xmlns="http://www.w3.org/2000/svg" width="420" height="420" viewBox="0 0 420 420"><rect width="420" height="420" rx="28" fill="#ffffff"/><rect x="30" y="30" width="360" height="360" rx="20" fill="#f3f3f3"/><rect x="70" y="70" width="90" height="90" fill="#111"/><rect x="90" y="90" width="50" height="50" fill="#fff"/><rect x="260" y="70" width="90" height="90" fill="#111"/><rect x="280" y="90" width="50" height="50" fill="#fff"/><rect x="70" y="260" width="90" height="90" fill="#111"/><rect x="90" y="280" width="50" height="50" fill="#fff"/><rect x="205" y="205" width="25" height="25" fill="#111"/><rect x="245" y="205" width="20" height="20" fill="#111"/><rect x="285" y="205" width="30" height="30" fill="#111"/><rect x="205" y="245" width="20" height="30" fill="#111"/><rect x="240" y="250" width="35" height="20" fill="#111"/><rect x="290" y="250" width="20" height="25" fill="#111"/><rect x="205" y="295" width="30" height="20" fill="#111"/><rect x="250" y="300" width="25" height="30" fill="#111"/><rect x="295" y="290" width="25" height="35" fill="#111"/><text x="210" y="360" text-anchor="middle" font-family="Arial" font-size="15" fill="#111">REPLACE WITH YOUR PAYMENT QR</text></svg>
